<svg width="512" height="512" viewBox="0 0 512 512" fill="none" xmlns="http://www.w3.org/2000/svg" role="img" aria-labelledby="title desc">
  <title id="title">Priority Support Solutions logo</title>
  <desc id="desc">House outline with two people and supporting hands in teal and purple.</desc>
  <defs>
    <linearGradient id="tealGrad" x1="110" y1="160" x2="230" y2="360" gradientUnits="userSpaceOnUse">
      <stop stop-color="#14B8CF" />
      <stop offset="1" stop-color="#0F8FB2" />
    </linearGradient>
    <linearGradient id="purpleGrad" x1="282" y1="156" x2="408" y2="358" gradientUnits="userSpaceOnUse">
      <stop stop-color="#8B5CF6" />
      <stop offset="1" stop-color="#6D28D9" />
    </linearGradient>
    <linearGradient id="handGrad" x1="128" y1="308" x2="386" y2="412" gradientUnits="userSpaceOnUse">
      <stop stop-color="#0EA5C8" />
      <stop offset="1" stop-color="#6D28D9" />
    </linearGradient>
  </defs>
  <rect width="512" height="512" rx="64" fill="white" />
  <path d="M140 188L256 98L372 188" stroke="#7C4DCC" stroke-width="18" stroke-linecap="round" stroke-linejoin="round" />
  <path d="M162 188V150" stroke="#7C4DCC" stroke-width="18" stroke-linecap="round" />
  <rect x="232" y="146" width="20" height="20" rx="4" fill="#11A8C7" />
  <rect x="260" y="146" width="20" height="20" rx="4" fill="#11A8C7" />
  <rect x="232" y="174" width="20" height="20" rx="4" fill="#11A8C7" />
  <rect x="260" y="174" width="20" height="20" rx="4" fill="#11A8C7" />
  <circle cx="186" cy="204" r="26" fill="url(#tealGrad)" />
  <circle cx="326" cy="204" r="26" fill="url(#purpleGrad)" />
  <path d="M175 234C145 246 132 277 147 302C159 323 181 329 204 322C188 309 180 296 180 282C180 260 198 244 220 244C229 244 238 246 246 251C234 226 207 221 175 234Z" fill="url(#tealGrad)" />
  <path d="M337 234C367 246 380 277 365 302C353 323 331 329 308 322C324 309 332 296 332 282C332 260 314 244 292 244C283 244 274 246 266 251C278 226 305 221 337 234Z" fill="url(#purpleGrad)" />
  <path d="M164 306C197 354 253 378 306 370C332 366 357 355 375 337C344 345 323 342 301 333C278 323 251 303 228 291C208 281 187 282 164 306Z" fill="url(#handGrad)" />
  <path d="M158 302C189 374 262 410 337 389C363 382 386 367 402 346C365 349 341 343 317 329C292 314 270 293 245 286C219 279 186 281 158 302Z" fill="url(#handGrad)" opacity="0.9" />
  <path d="M246 296C263 285 283 282 298 290C312 297 317 314 310 327C302 342 279 355 252 350C232 346 219 336 214 323C209 311 216 303 226 300C232 298 239 297 246 296Z" fill="white" />
  <path d="M112 378H400" stroke="#11A8C7" stroke-width="10" stroke-linecap="round" opacity="0.35" />
  <path d="M118 376C136 394 152 401 169 401C181 401 192 397 202 391" stroke="#11A8C7" stroke-width="12" stroke-linecap="round" opacity="0.7" />
  <path d="M394 376C376 394 360 401 343 401C331 401 320 397 310 391" stroke="#7C4DCC" stroke-width="12" stroke-linecap="round" opacity="0.7" />
  <text x="256" y="466" text-anchor="middle" font-family="Arial, Helvetica, sans-serif" font-size="58" font-weight="700" letter-spacing="4" fill="#11A8C7">PRIORITY</text>
  <text x="256" y="496" text-anchor="middle" font-family="Arial, Helvetica, sans-serif" font-size="26" font-weight="700" letter-spacing="3" fill="#7C4DCC">SUPPORT SOLUTIONS</text>
</svg>
